HIERARCHY
ROOT joint_Root
{
	OFFSET 0.0 0.0 0.0
	CHANNELS 6 Xposition Yposition Zposition Zrotation Xrotation Yrotation 
	JOINT Hips
	{
		OFFSET 4.5925 91.4895 -427.239
		CHANNELS 6 Xposition Yposition Zposition Zrotation Xrotation Yrotation 
		JOINT Spine
		{
			OFFSET 15.7357 0.0 0.0
			CHANNELS 6 Xposition Yposition Zposition Zrotation Xrotation Yrotation 
			JOINT Chest
			{
				OFFSET 8.98455 -0.406207 0.0
				CHANNELS 6 Xposition Yposition Zposition Zrotation Xrotation Yrotation 
				JOINT Neck
				{
					OFFSET 16.3773 0.0 0.0
					CHANNELS 6 Xposition Yposition Zposition Zrotation Xrotation Yrotation 
					JOINT Head
					{
						OFFSET 6.45672 0.0 0.0
						CHANNELS 6 Xposition Yposition Zposition Zrotation Xrotation Yrotation 
						End Site
						{
							OFFSET 0.0 0.0 0.0
						}
					}
				}
				JOINT Shoulder_L
				{
					OFFSET 12.9942 -0.242716 4.98039
					CHANNELS 6 Xposition Yposition Zposition Zrotation Xrotation Yrotation 
					JOINT UpperArm_L
					{
						OFFSET 5.34809 0.0 0.0
						CHANNELS 6 Xposition Yposition Zposition Zrotation Xrotation Yrotation 
						JOINT LowerArm_L
						{
							OFFSET 24.3286 1.87007e-05 0.0
							CHANNELS 6 Xposition Yposition Zposition Zrotation Xrotation Yrotation 
							JOINT Hand_L
							{
								OFFSET 22.2916 0.0 0.0
								CHANNELS 6 Xposition Yposition Zposition Zrotation Xrotation Yrotation 
								End Site
								{
									OFFSET 0.0 0.0 0.0
								}
							}
						}
					}
				}
				JOINT Shoulder_R
				{
					OFFSET 12.9945 -0.242716 -4.98039
					CHANNELS 6 Xposition Yposition Zposition Zrotation Xrotation Yrotation 
					JOINT UpperArm_R
					{
						OFFSET -5.34813 0.0 0.0
						CHANNELS 6 Xposition Yposition Zposition Zrotation Xrotation Yrotation 
						JOINT LowerArm_R
						{
							OFFSET -24.3289 0.000322201 0.0
							CHANNELS 6 Xposition Yposition Zposition Zrotation Xrotation Yrotation 
							JOINT Hand_R
							{
								OFFSET -22.2915 -0.000108084 0.0
								CHANNELS 6 Xposition Yposition Zposition Zrotation Xrotation Yrotation 
								End Site
								{
									OFFSET 0.0 0.0 0.0
								}
							}
						}
					}
				}
			}
		}
		JOINT UpperLeg_L
		{
			OFFSET -2.19248 -6.46944 0.0
			CHANNELS 6 Xposition Yposition Zposition Zrotation Xrotation Yrotation 
			JOINT LowerLeg_L
			{
				OFFSET 39.0811 0.0 -1.23785e-05
				CHANNELS 6 Xposition Yposition Zposition Zrotation Xrotation Yrotation 
				JOINT Foot_L
				{
					OFFSET 40.9854 0.0 -1.26872e-05
					CHANNELS 6 Xposition Yposition Zposition Zrotation Xrotation Yrotation 
					JOINT Toes_L
					{
						OFFSET 11.7543 0.0 0.0
						CHANNELS 6 Xposition Yposition Zposition Zrotation Xrotation Yrotation 
						End Site
						{
							OFFSET 0.0 0.0 0.0
						}
					}
				}
			}
		}
		JOINT UpperLeg_R
		{
			OFFSET -2.19251 6.46944 0.0
			CHANNELS 6 Xposition Yposition Zposition Zrotation Xrotation Yrotation 
			JOINT LowerLeg_R
			{
				OFFSET -39.0811 -0.00228153 -0.0401928
				CHANNELS 6 Xposition Yposition Zposition Zrotation Xrotation Yrotation 
				JOINT Foot_R
				{
					OFFSET -40.9854 0.0 0.0
					CHANNELS 6 Xposition Yposition Zposition Zrotation Xrotation Yrotation 
					JOINT Toes_R
					{
						OFFSET -11.7543 0.0 0.0
						CHANNELS 6 Xposition Yposition Zposition Zrotation Xrotation Yrotation 
						End Site
						{
							OFFSET 0.0 0.0 0.0
						}
					}
				}
			}
		}
	}
}
MOTION
Frames:	8
Frame Time:	0.0333333
0.000000 0.000000 0.000000 0.000000 0.000000 -0.000000 -0.742118 91.436600 0.170089 89.784000 -1.403520 4.318820 15.735700 0.000005 -0.000001 79.034200 87.950400 -79.160400 8.984550 -0.406207 -0.000000 -3.742690 -0.766621 -0.277569 16.377300 -0.000001 -0.000001 3.095330 -2.975990 2.818710 6.456720 -0.000001 -0.000000 -3.492360 -1.243670 0.394086 12.994200 -0.242716 4.980390 -83.001200 -11.967900 -59.373500 5.348090 -0.000007 -0.000001 -41.290500 -65.093400 -87.918900 24.328600 0.000019 0.000005 18.457600 15.260400 -51.742000 22.291600 -0.000001 0.000005 23.688400 5.363470 -1.786100 12.994500 -0.242716 -4.980390 95.213600 -11.414600 -65.247300 -5.348130 -0.000001 -0.000004 -37.876500 -63.440500 -86.840200 -24.328900 0.000322 -0.000009 4.648970 4.157680 -48.289400 -22.291500 -0.000108 -0.000004 21.506700 5.611010 -12.020600 -2.192480 -6.469440 -0.000000 -176.037000 -11.420700 -3.820090 39.081100 -0.000007 -0.000012 -0.159705 0.314829 26.897800 40.985400 -0.000006 -0.000013 -0.333323 4.949630 -68.639900 11.754300 -0.000000 0.000003 -0.000126 -0.001254 -16.625400 -2.192510 6.469440 -0.000001 175.923000 20.695800 178.423000 -39.081100 -0.002282 -0.040193 -0.019050 0.045382 26.229300 -40.985400 0.000008 0.000006 6.137770 12.130300 -70.987600 -11.754300 -0.000006 -0.000006 -0.002434 -0.034024 -17.956700
0.000000 0.000000 0.000000 0.000000 0.000000 -0.000000 -0.753822 91.446000 0.167863 89.752700 -1.595920 4.244120 15.735700 0.000005 -0.000001 79.512800 87.901100 -79.617100 8.984550 -0.406207 -0.000000 -3.639240 -0.753247 -0.232624 16.377300 -0.000001 -0.000001 3.076630 -2.954970 2.839480 6.456720 -0.000001 -0.000000 -3.661460 -1.158010 0.441184 12.994200 -0.242716 4.980390 -83.168500 -11.693000 -59.411900 5.348090 -0.000007 -0.000001 -40.276700 -64.461700 -85.106200 24.328600 0.000019 0.000005 18.499400 13.576100 -54.950200 22.291600 -0.000001 0.000005 24.073200 5.348210 -1.324550 12.994500 -0.242716 -4.980390 95.068100 -11.166200 -65.394200 -5.348130 -0.000001 -0.000004 -35.857700 -63.068200 -83.984300 -24.328900 0.000322 -0.000009 3.691220 3.112390 -49.931900 -22.291500 -0.000108 -0.000004 20.678900 5.595950 -11.093200 -2.192480 -6.469440 -0.000000 -176.006000 -11.547400 -3.843470 39.081100 -0.000007 -0.000012 -0.158335 0.312792 26.848700 40.985400 -0.000006 -0.000013 -0.362093 4.877240 -68.629800 11.754300 -0.000000 0.000003 -0.000128 -0.001269 -16.626000 -2.192510 6.469440 -0.000001 175.996000 20.642500 178.344000 -39.081100 -0.002282 -0.040193 -0.018247 0.043872 26.167700 -40.985400 0.000008 0.000006 6.133870 12.250400 -70.939300 -11.754300 -0.000006 -0.000006 -0.002417 -0.033820 -17.948400
0.000000 0.000000 0.000000 0.000000 0.000000 -0.000000 -0.749279 91.461900 0.141905 89.772400 -1.735350 4.158610 15.735700 0.000005 -0.000001 80.320900 87.848700 -80.416800 8.984550 -0.406207 -0.000000 -3.525440 -0.713548 -0.213861 16.377300 -0.000001 -0.000001 3.060690 -2.979470 2.839820 6.456720 -0.000001 -0.000000 -3.816690 -1.131520 0.532548 12.994200 -0.242716 4.980390 -83.474300 -11.273500 -59.666500 5.348090 -0.000007 -0.000001 -39.248000 -63.211300 -81.195700 24.328600 0.000019 0.000005 18.032300 10.914500 -59.821600 22.291600 -0.000001 0.000005 24.005300 5.341240 -1.115780 12.994500 -0.242716 -4.980390 94.812400 -10.689000 -65.586200 -5.348130 -0.000001 -0.000004 -33.727000 -62.138200 -80.354500 -24.328900 0.000322 -0.000009 2.214790 1.686130 -52.779100 -22.291500 -0.000108 -0.000004 19.669200 5.570590 -9.707810 -2.192480 -6.469440 -0.000000 -176.030000 -11.720600 -3.876990 39.081100 -0.000007 -0.000012 -0.158150 0.313829 26.745500 40.985400 -0.000006 -0.000013 -0.357957 4.901000 -68.570100 11.754300 -0.000000 0.000003 -0.000134 -0.001318 -16.627800 -2.192510 6.469440 -0.000001 175.988000 20.668100 178.247000 -39.081100 -0.002282 -0.040193 -0.021839 0.051319 26.107700 -40.985400 0.000008 0.000006 6.102540 12.443200 -70.874400 -11.754300 -0.000006 -0.000006 -0.002292 -0.032311 -17.887000
0.000000 0.000000 0.000000 0.000000 0.000000 -0.000000 -0.740245 91.468100 0.114605 89.766000 -1.836900 4.153350 15.735700 0.000005 -0.000001 80.887500 87.758800 -80.959900 8.984550 -0.406207 -0.000000 -3.340780 -0.702534 -0.165176 16.377300 -0.000001 -0.000001 3.030030 -2.957570 2.873920 6.456720 -0.000001 -0.000000 -4.018570 -1.016920 0.594668 12.994200 -0.242716 4.980390 -83.919100 -10.683000 -60.114800 5.348090 -0.000007 -0.000001 -38.056200 -61.245900 -75.978000 24.328600 0.000019 0.000005 16.952300 7.663240 -66.379700 22.291600 -0.000001 0.000005 23.418500 5.327330 -0.706683 12.994500 -0.242716 -4.980390 94.423100 -9.947720 -65.878900 -5.348130 -0.000001 -0.000004 -31.601000 -60.494600 -75.994000 -24.328900 0.000322 -0.000009 0.178711 0.118851 -56.970200 -22.291500 -0.000108 -0.000004 18.904300 5.544320 -8.436350 -2.192480 -6.469440 -0.000000 -176.023000 -11.870900 -3.883690 39.081100 -0.000007 -0.000012 -0.157339 0.312436 26.729400 40.985400 -0.000006 -0.000013 -0.338657 4.932730 -68.545800 11.754300 -0.000000 0.000003 -0.000135 -0.001327 -16.628100 -2.192510 6.469440 -0.000001 175.964000 20.723000 178.229000 -39.081100 -0.002282 -0.040193 -0.028327 0.064637 26.079800 -40.985400 0.000008 0.000006 6.041160 12.604300 -70.820900 -11.754300 -0.000006 -0.000006 -0.002174 -0.030868 -17.828300
0.000000 0.000000 0.000000 0.000000 0.000000 -0.000000 -0.709925 91.472100 0.070549 89.781800 -1.924220 4.146610 15.735700 0.000005 -0.000001 81.850000 87.639000 -81.897800 8.984550 -0.406207 -0.000000 -3.092060 -0.664610 -0.113429 16.377300 -0.000001 -0.000001 2.924210 -2.888720 2.832230 6.456720 -0.000001 -0.000000 -4.372080 -0.938487 0.741196 12.994200 -0.242716 4.980390 -84.513000 -9.897030 -60.800200 5.348090 -0.000007 -0.000001 -36.717500 -58.442800 -69.439400 24.328600 0.000019 0.000005 15.390200 4.442350 -74.293600 22.291600 -0.000001 0.000005 22.873300 5.314490 -0.337540 12.994500 -0.242716 -4.980390 93.853000 -8.789060 -66.213700 -5.348130 -0.000001 -0.000004 -29.221200 -58.191200 -70.895000 -24.328900 0.000322 -0.000009 -1.652970 -0.865473 -62.304900 -22.291500 -0.000108 -0.000004 18.192400 5.516990 -7.228690 -2.192480 -6.469440 -0.000000 -176.041000 -12.046200 -3.900590 39.081100 -0.000007 -0.000012 -0.157073 0.312073 26.717400 40.985400 -0.000006 -0.000013 -0.293638 5.030200 -68.519800 11.754300 -0.000000 0.000003 -0.000145 -0.001413 -16.631300 -2.192510 6.469440 -0.000001 175.888000 20.785300 178.189000 -39.081100 -0.002282 -0.040193 -0.041019 0.090611 26.068900 -40.985400 0.000008 0.000006 5.827450 12.819300 -70.722700 -11.754300 -0.000006 -0.000006 -0.002093 -0.029871 -17.787700
0.000000 0.000000 0.000000 0.000000 0.000000 -0.000000 -0.662089 91.463000 -0.001310 89.846300 -1.981950 4.228490 15.735700 0.000005 -0.000001 82.286200 87.456600 -82.312000 8.984550 -0.406207 -0.000000 -2.725550 -0.680165 -0.067716 16.377300 -0.000001 -0.000001 2.753260 -2.624360 2.687000 6.456720 -0.000001 -0.000000 -4.667160 -0.869236 0.915421 12.994200 -0.242716 4.980390 -85.219400 -8.915800 -61.648700 5.348090 -0.000007 -0.000001 -34.680000 -54.610900 -61.058300 24.328600 0.000019 0.000005 14.512700 1.797170 -83.094500 22.291600 -0.000001 0.000005 22.547200 5.303490 -0.025670 12.994500 -0.242716 -4.980390 93.089000 -7.169390 -66.617200 -5.348130 -0.000001 -0.000004 -26.697800 -55.012200 -65.250400 -24.328900 0.000322 -0.000009 -3.129330 -1.231850 -68.498800 -22.291500 -0.000108 -0.000004 17.581800 5.498380 -6.466420 -2.192480 -6.469440 -0.000000 -176.102000 -12.266800 -3.891790 39.081100 -0.000007 -0.000012 -0.157733 0.312573 26.777000 40.985400 -0.000006 -0.000013 -0.221417 5.149330 -68.504400 11.754300 -0.000000 0.000003 -0.000146 -0.001422 -16.631600 -2.192510 6.469440 -0.000001 175.692000 20.895600 178.183000 -39.081100 -0.002282 -0.040193 -0.057888 0.124603 26.157500 -40.985400 0.000008 0.000006 5.472850 13.122000 -70.623100 -11.754300 -0.000006 -0.000006 -0.002127 -0.030299 -17.805200
0.000000 0.000000 0.000000 0.000000 0.000000 -0.000000 -0.597062 91.450200 -0.099389 89.888700 -2.034990 4.359860 15.735700 0.000005 -0.000001 81.143700 87.213000 -81.082500 8.984550 -0.406207 -0.000000 -2.258140 -0.863262 0.105435 16.377300 -0.000001 -0.000001 2.607810 -2.241270 2.439450 6.456720 -0.000001 -0.000000 -5.125960 -0.735534 0.875798 12.994200 -0.242716 4.980390 -86.028700 -7.807390 -62.932400 5.348090 -0.000007 -0.000001 -32.138000 -49.560300 -50.748800 24.328600 0.000019 0.000005 14.595700 -0.467701 -91.795700 22.291600 -0.000001 0.000005 22.561600 5.299770 0.078491 12.994500 -0.242716 -4.980390 92.317200 -5.632720 -67.597300 -5.348130 -0.000001 -0.000004 -24.068900 -50.916200 -58.314000 -24.328900 0.000322 -0.000009 -4.191950 -1.072560 -75.650800 -22.291500 -0.000108 -0.000004 17.490100 5.481850 -5.820030 -2.192480 -6.469440 -0.000000 -176.150000 -12.428100 -3.872790 39.081100 -0.000007 -0.000012 -0.156032 0.307756 26.885200 40.985400 -0.000006 -0.000013 -0.135029 5.266680 -68.503600 11.754300 -0.000000 0.000003 -0.000143 -0.001395 -16.630700 -2.192510 6.469440 -0.000001 175.500000 20.948500 178.192000 -39.081100 -0.002282 -0.040193 -0.076302 0.161299 26.269500 -40.985400 0.000008 0.000006 5.110930 13.397300 -70.505700 -11.754300 -0.000006 -0.000006 -0.001927 -0.027803 -17.703600
0.000000 0.000000 0.000000 0.000000 0.000000 -0.000000 -0.530175 91.436100 -0.215160 89.916400 -2.074090 4.589390 15.735700 0.000005 -0.000001 81.002700 86.893300 -80.925500 8.984550 -0.406207 -0.000000 -1.628390 -0.977818 0.140584 16.377300 -0.000001 -0.000001 2.142270 -2.143550 2.528900 6.456720 -0.000001 -0.000000 -5.319160 -0.406653 0.729599 12.994200 -0.242716 4.980390 -87.042700 -6.221010 -64.514100 5.348090 -0.000007 -0.000001 -29.916000 -43.022200 -40.848100 24.328600 0.000019 0.000005 14.303300 -2.176630 -98.473600 22.291600 -0.000001 0.000005 22.627800 5.315480 -0.365282 12.994500 -0.242716 -4.980390 91.550100 -4.042310 -69.004500 -5.348130 -0.000001 -0.000004 -21.293400 -45.601500 -49.758700 -24.328900 0.000322 -0.000009 -5.278910 -0.646365 -83.024800 -22.291500 -0.000108 -0.000004 17.653600 5.473880 -5.516510 -2.192480 -6.469440 -0.000000 -176.164000 -12.593800 -3.781330 39.081100 -0.000007 -0.000012 -0.155023 0.303986 27.020300 40.985400 -0.000006 -0.000013 -0.043544 5.384720 -68.501800 11.754300 -0.000000 0.000003 -0.000140 -0.001370 -16.629700 -2.192510 6.469440 -0.000001 175.307000 21.040700 178.289000 -39.081100 -0.002282 -0.040193 -0.088674 0.185252 26.405900 -40.985400 0.000008 0.000006 4.889560 13.608400 -70.427300 -11.754300 -0.000006 -0.000006 -0.001885 -0.027269 -17.681900
